HIERARCHY
ROOT Hips
{
	OFFSET -318.825958 -575.233643 89.265579
	CHANNELS 6 Xposition Yposition Zposition Zrotation Yrotation Xrotation
	JOINT Spine
	{
		OFFSET 0.000000 2.080078 8.814247
		CHANNELS 6 Xposition Yposition Zposition Zrotation Yrotation Xrotation
		JOINT Spine1
		{
			OFFSET 0.000000 0.000000 8.844139
			CHANNELS 6 Xposition Yposition Zposition Zrotation Yrotation Xrotation
			JOINT Spine2
			{
				OFFSET 0.000000 0.000000 11.682266
				CHANNELS 6 Xposition Yposition Zposition Zrotation Yrotation Xrotation
				JOINT Spine3
				{
					OFFSET 0.000000 0.000000 11.746704
					CHANNELS 6 Xposition Yposition Zposition Zrotation Yrotation Xrotation
					JOINT Neck
					{
						OFFSET 0.000000 0.000000 17.658264
						CHANNELS 6 Xposition Yposition Zposition Zrotation Yrotation Xrotation
						JOINT Neck1
						{
							OFFSET 0.000000 0.000000 5.101517
							CHANNELS 6 Xposition Yposition Zposition Zrotation Yrotation Xrotation
							JOINT Head
							{
								OFFSET 0.000000 0.000000 5.101517
								CHANNELS 6 Xposition Yposition Zposition Zrotation Yrotation Xrotation
								JOINT HeadEnd
								{
									OFFSET 0.000000 0.000000 11.655090
									CHANNELS 6 Xposition Yposition Zposition Zrotation Yrotation Xrotation
									End Site
									{
										OFFSET 0.000000 0.000000 0.100006
									}
								}
							}
						}
					}
					JOINT RightShoulder
					{
						OFFSET -2.625397 0.000000 11.175217
						CHANNELS 6 Xposition Yposition Zposition Zrotation Yrotation Xrotation
						JOINT RightArm
						{
							OFFSET 0.000000 0.000000 10.434723
							CHANNELS 6 Xposition Yposition Zposition Zrotation Yrotation Xrotation
							JOINT RightForeArm
							{
								OFFSET 0.000000 0.000000 29.628418
								CHANNELS 6 Xposition Yposition Zposition Zrotation Yrotation Xrotation
								JOINT RightHand
								{
									OFFSET 0.000000 0.000000 22.857605
									CHANNELS 6 Xposition Yposition Zposition Zrotation Yrotation Xrotation
									JOINT RightHandThumb1
									{
										OFFSET -2.867310 -2.944275 3.959564
										CHANNELS 6 Xposition Yposition Zposition Zrotation Yrotation Xrotation
										JOINT RightHandThumb2
										{
											OFFSET 0.000000 0.000000 3.350403
											CHANNELS 6 Xposition Yposition Zposition Zrotation Yrotation Xrotation
											JOINT RightHandThumb3
											{
												OFFSET 0.000000 0.000000 3.756516
												CHANNELS 6 Xposition Yposition Zposition Zrotation Yrotation Xrotation
												JOINT RightHandThumb4
												{
													OFFSET 0.000000 0.000000 3.147339
													CHANNELS 6 Xposition Yposition Zposition Zrotation Yrotation Xrotation
													End Site
													{
														OFFSET 0.000000 0.000000 0.100006
													}
												}
											}
										}
									}
									JOINT RightHandIndex1
									{
										OFFSET -0.086761 -2.345276 10.030899
										CHANNELS 6 Xposition Yposition Zposition Zrotation Yrotation Xrotation
										JOINT RightHandIndex2
										{
											OFFSET 0.000000 0.000000 4.061096
											CHANNELS 6 Xposition Yposition Zposition Zrotation Yrotation Xrotation
											JOINT RightHandIndex3
											{
												OFFSET 0.000000 0.000000 3.248871
												CHANNELS 6 Xposition Yposition Zposition Zrotation Yrotation Xrotation
												JOINT RightHandIndex4
												{
													OFFSET 0.000000 0.000000 2.639709
													CHANNELS 6 Xposition Yposition Zposition Zrotation Yrotation Xrotation
													End Site
													{
														OFFSET 0.000000 0.000000 0.100006
													}
												}
											}
										}
									}
									JOINT RightHandMiddle1
									{
										OFFSET 0.104095 -0.006775 9.502945
										CHANNELS 6 Xposition Yposition Zposition Zrotation Yrotation Xrotation
										JOINT RightHandMiddle2
										{
											OFFSET 0.000000 0.000000 4.568726
											CHANNELS 6 Xposition Yposition Zposition Zrotation Yrotation Xrotation
											JOINT RightHandMiddle3
											{
												OFFSET 0.000000 0.000000 3.654984
												CHANNELS 6 Xposition Yposition Zposition Zrotation Yrotation Xrotation
												JOINT RightHandMiddle4
												{
													OFFSET 0.000000 0.000000 2.741241
													CHANNELS 6 Xposition Yposition Zposition Zrotation Yrotation Xrotation
													End Site
													{
														OFFSET 0.000000 0.000000 0.100006
													}
												}
											}
										}
									}
									JOINT RightHandRing1
									{
										OFFSET 0.086761 2.267456 8.921707
										CHANNELS 6 Xposition Yposition Zposition Zrotation Yrotation Xrotation
										JOINT RightHandRing2
										{
											OFFSET 0.000000 0.000000 4.061096
											CHANNELS 6 Xposition Yposition Zposition Zrotation Yrotation Xrotation
											JOINT RightHandRing3
											{
												OFFSET 0.000000 0.000000 3.654984
												CHANNELS 6 Xposition Yposition Zposition Zrotation Yrotation Xrotation
												JOINT RightHandRing4
												{
													OFFSET 0.000000 0.000000 2.741241
													CHANNELS 6 Xposition Yposition Zposition Zrotation Yrotation Xrotation
													End Site
													{
														OFFSET 0.000000 0.000000 0.100006
													}
												}
											}
										}
									}
									JOINT RightHandPinky1
									{
										OFFSET -0.173492 4.467224 7.976990
										CHANNELS 6 Xposition Yposition Zposition Zrotation Yrotation Xrotation
										JOINT RightHandPinky2
										{
											OFFSET 0.000000 0.000000 3.350403
											CHANNELS 6 Xposition Yposition Zposition Zrotation Yrotation Xrotation
											JOINT RightHandPinky3
											{
												OFFSET 0.000000 0.000000 2.842758
												CHANNELS 6 Xposition Yposition Zposition Zrotation Yrotation Xrotation
												JOINT RightHandPinky4
												{
													OFFSET 0.000000 0.000000 2.639709
													CHANNELS 6 Xposition Yposition Zposition Zrotation Yrotation Xrotation
													End Site
													{
														OFFSET 0.000000 0.000000 0.100006
													}
												}
											}
										}
									}
									JOINT RightForeArmEnd
									{
										OFFSET 0.000000 0.000000 0.000000
										CHANNELS 6 Xposition Yposition Zposition Zrotation Yrotation Xrotation
										End Site
										{
											OFFSET 0.000000 0.000000 0.100006
										}
									}
								}
								JOINT RightArmEnd
								{
									OFFSET 0.000000 0.000000 0.000000
									CHANNELS 6 Xposition Yposition Zposition Zrotation Yrotation Xrotation
									End Site
									{
										OFFSET 0.000000 0.000000 0.100006
									}
								}
							}
						}
					}
					JOINT LeftShoulder
					{
						OFFSET 2.625397 0.000000 11.175217
						CHANNELS 6 Xposition Yposition Zposition Zrotation Yrotation Xrotation
						JOINT LeftArm
						{
							OFFSET 0.000000 0.000000 10.813629
							CHANNELS 6 Xposition Yposition Zposition Zrotation Yrotation Xrotation
							JOINT LeftForeArm
							{
								OFFSET 0.000000 0.000000 28.724777
								CHANNELS 6 Xposition Yposition Zposition Zrotation Yrotation Xrotation
								JOINT LeftHand
								{
									OFFSET 0.644379 0.328857 25.716171
									CHANNELS 6 Xposition Yposition Zposition Zrotation Yrotation Xrotation
									JOINT LeftHandThumb1
									{
										OFFSET 2.867310 -2.944275 3.959564
										CHANNELS 6 Xposition Yposition Zposition Zrotation Yrotation Xrotation
										JOINT LeftHandThumb2
										{
											OFFSET 0.000000 0.000000 3.350403
											CHANNELS 6 Xposition Yposition Zposition Zrotation Yrotation Xrotation
											JOINT LeftHandThumb3
											{
												OFFSET 0.000000 0.000000 3.756516
												CHANNELS 6 Xposition Yposition Zposition Zrotation Yrotation Xrotation
												JOINT LeftHandThumb4
												{
													OFFSET 0.000000 0.000000 3.100006
													CHANNELS 6 Xposition Yposition Zposition Zrotation Yrotation Xrotation
													End Site
													{
														OFFSET 0.000000 0.000000 0.100006
													}
												}
											}
										}
									}
									JOINT LeftHandIndex1
									{
										OFFSET 0.086761 -2.345276 10.030899
										CHANNELS 6 Xposition Yposition Zposition Zrotation Yrotation Xrotation
										JOINT LeftHandIndex2
										{
											OFFSET 0.000000 0.000000 4.061096
											CHANNELS 6 Xposition Yposition Zposition Zrotation Yrotation Xrotation
											JOINT LeftHandIndex3
											{
												OFFSET 0.000000 0.000000 3.248871
												CHANNELS 6 Xposition Yposition Zposition Zrotation Yrotation Xrotation
												JOINT LeftHandIndex4
												{
													OFFSET 0.000000 0.000000 2.639709
													CHANNELS 6 Xposition Yposition Zposition Zrotation Yrotation Xrotation
													End Site
													{
														OFFSET 0.000000 0.000000 0.100006
													}
												}
											}
										}
									}
									JOINT LeftHandMiddle1
									{
										OFFSET -0.104095 -0.006775 9.502945
										CHANNELS 6 Xposition Yposition Zposition Zrotation Yrotation Xrotation
										JOINT LeftHandMiddle2
										{
											OFFSET 0.000000 0.000000 4.568726
											CHANNELS 6 Xposition Yposition Zposition Zrotation Yrotation Xrotation
											JOINT LeftHandMiddle3
											{
												OFFSET 0.000000 0.000000 3.654984
												CHANNELS 6 Xposition Yposition Zposition Zrotation Yrotation Xrotation
												JOINT LeftHandMiddle4
												{
													OFFSET 0.000000 0.000000 2.741241
													CHANNELS 6 Xposition Yposition Zposition Zrotation Yrotation Xrotation
													End Site
													{
														OFFSET 0.000000 0.000000 0.100006
													}
												}
											}
										}
									}
									JOINT LeftHandRing1
									{
										OFFSET -0.086761 2.267456 8.921707
										CHANNELS 6 Xposition Yposition Zposition Zrotation Yrotation Xrotation
										JOINT LeftHandRing2
										{
											OFFSET 0.000000 0.000000 4.061096
											CHANNELS 6 Xposition Yposition Zposition Zrotation Yrotation Xrotation
											JOINT LeftHandRing3
											{
												OFFSET 0.000000 0.000000 3.654984
												CHANNELS 6 Xposition Yposition Zposition Zrotation Yrotation Xrotation
												JOINT LeftHandRing4
												{
													OFFSET 0.000000 0.000000 2.741241
													CHANNELS 6 Xposition Yposition Zposition Zrotation Yrotation Xrotation
													End Site
													{
														OFFSET 0.000000 0.000000 0.100006
													}
												}
											}
										}
									}
									JOINT LeftHandPinky1
									{
										OFFSET 0.173492 4.467224 7.976990
										CHANNELS 6 Xposition Yposition Zposition Zrotation Yrotation Xrotation
										JOINT LeftHandPinky2
										{
											OFFSET 0.000000 0.000000 3.350403
											CHANNELS 6 Xposition Yposition Zposition Zrotation Yrotation Xrotation
											JOINT LeftHandPinky3
											{
												OFFSET 0.000000 0.000000 2.842758
												CHANNELS 6 Xposition Yposition Zposition Zrotation Yrotation Xrotation
												JOINT LeftHandPinky4
												{
													OFFSET 0.000000 0.000000 2.639709
													CHANNELS 6 Xposition Yposition Zposition Zrotation Yrotation Xrotation
													End Site
													{
														OFFSET 0.000000 0.000000 0.100006
													}
												}
											}
										}
									}
									JOINT LeftForeArmEnd
									{
										OFFSET 0.000000 0.000000 0.000000
										CHANNELS 6 Xposition Yposition Zposition Zrotation Yrotation Xrotation
										End Site
										{
											OFFSET 0.000000 0.000000 0.100006
										}
									}
								}
								JOINT LeftArmEnd
								{
									OFFSET 0.000000 0.000000 0.000000
									CHANNELS 6 Xposition Yposition Zposition Zrotation Yrotation Xrotation
									End Site
									{
										OFFSET 0.000000 0.000000 0.100006
									}
								}
							}
						}
					}
				}
			}
		}
	}
	JOINT RightUpLeg
	{
		OFFSET -11.289948 0.000000 0.000000
		CHANNELS 6 Xposition Yposition Zposition Zrotation Yrotation Xrotation
		JOINT RightLeg
		{
			OFFSET 0.000000 0.000000 -38.200329
			CHANNELS 6 Xposition Yposition Zposition Zrotation Yrotation Xrotation
			JOINT RightFoot
			{
				OFFSET 0.000000 0.000000 -39.900856
				CHANNELS 6 Xposition Yposition Zposition Zrotation Yrotation Xrotation
				JOINT RightToeBase
				{
					OFFSET 0.000000 -15.261658 0.000001
					CHANNELS 6 Xposition Yposition Zposition Zrotation Yrotation Xrotation
					JOINT RightToeBaseEnd
					{
						OFFSET 0.000000 -7.370728 0.000000
						CHANNELS 6 Xposition Yposition Zposition Zrotation Yrotation Xrotation
						End Site
						{
							OFFSET 0.000000 0.000000 0.100000
						}
					}
				}
				JOINT RightLegEnd
				{
					OFFSET 0.000000 0.000000 0.000000
					CHANNELS 6 Xposition Yposition Zposition Zrotation Yrotation Xrotation
					End Site
					{
						OFFSET 0.000000 0.000000 0.100000
					}
				}
			}
			JOINT RightUpLegEnd
			{
				OFFSET 0.000000 0.000000 0.000000
				CHANNELS 6 Xposition Yposition Zposition Zrotation Yrotation Xrotation
				End Site
				{
					OFFSET 0.000000 0.000000 0.099998
				}
			}
		}
	}
	JOINT LeftUpLeg
	{
		OFFSET 11.315674 0.000000 0.000000
		CHANNELS 6 Xposition Yposition Zposition Zrotation Yrotation Xrotation
		JOINT LeftLeg
		{
			OFFSET 0.000000 0.000000 -38.200329
			CHANNELS 6 Xposition Yposition Zposition Zrotation Yrotation Xrotation
			JOINT LeftFoot
			{
				OFFSET 0.000000 0.000000 -39.900856
				CHANNELS 6 Xposition Yposition Zposition Zrotation Yrotation Xrotation
				JOINT LeftToeBase
				{
					OFFSET 0.000000 -15.261658 0.000001
					CHANNELS 6 Xposition Yposition Zposition Zrotation Yrotation Xrotation
					JOINT LeftToeBaseEnd
					{
						OFFSET 0.000000 -7.539978 0.000000
						CHANNELS 6 Xposition Yposition Zposition Zrotation Yrotation Xrotation
						End Site
						{
							OFFSET 0.000000 0.000000 0.100000
						}
					}
				}
				JOINT LeftLegEnd
				{
					OFFSET 0.000000 0.000000 0.000000
					CHANNELS 6 Xposition Yposition Zposition Zrotation Yrotation Xrotation
					End Site
					{
						OFFSET 0.000000 0.000000 0.100000
					}
				}
			}
			JOINT LeftUpLegEnd
			{
				OFFSET 0.000000 0.000000 0.000000
				CHANNELS 6 Xposition Yposition Zposition Zrotation Yrotation Xrotation
				End Site
				{
					OFFSET 0.000000 0.000000 0.099998
				}
			}
		}
	}
}
MOTION
Frames: 2
Frame Time: 0.016667
-0.200653 1.960327 88.703079 -0.955651 -0.130297 -12.534824 0.000011 2.080094 8.814258 0.298404 -0.386700 7.507233 -0.000003 -0.000021 8.844136 0.158971 0.301780 2.226992 0.000003 -0.000005 11.682272 0.109541 0.016044 7.407384 -0.000005 -0.000030 11.746717 0.511775 -0.038928 5.097026 -0.000007 -0.000014 17.658287 -4.568342 -3.640970 4.527475 -0.000013 -0.000001 5.101517 -3.607919 0.315549 -3.364991 0.000001 0.000028 5.101499 -0.856405 -0.888250 -17.591664 0.000004 -0.000003 11.655078 0.000000 0.000000 -0.000000 -2.625397 0.000019 11.175224 192.053322 -89.764894 -181.244452 -0.000019 -0.000005 10.434700 -14.185069 -56.417646 13.292142 0.000019 -0.000008 29.628399 14.170415 1.409190 99.842093 0.000010 0.000004 22.857624 4.114349 7.766532 21.164415 -2.867348 -2.944305 3.959557 31.933146 -15.385290 54.454919 -0.000002 0.000019 3.350430 -8.550978 6.464789 -15.863203 -0.000004 0.000015 3.756544 -5.744570 4.744945 -10.902239 -0.000004 -0.000066 3.147365 0.000001 -0.000000 0.000000 -0.086785 -2.345291 10.030899 -7.671096 5.357172 15.037111 0.000003 -0.000010 4.061078 0.543646 0.000032 -0.005115 -0.000047 -0.000013 3.248885 0.143236 -0.000011 -0.008936 -0.000040 0.000007 2.639724 0.000000 -0.000001 -0.000004 0.104083 -0.006775 9.502924 -3.082803 2.679746 8.194704 -0.000015 -0.000064 4.568749 0.527632 0.000022 0.000549 -0.000040 -0.000089 3.654988 0.172664 0.000003 -0.001695 -0.000038 0.000008 2.741247 -0.000002 0.000001 0.000001 0.086742 2.267477 8.921721 4.264110 -1.177953 -1.974971 -0.000016 -0.000028 4.061101 -1.061835 -0.943046 -0.056667 -0.000009 0.000019 3.654978 -0.050794 -0.943064 -0.056839 0.000006 -0.000003 2.741250 0.000000 -0.000001 -0.000003 -0.173487 4.467262 7.977011 11.672146 -2.112758 -14.780109 0.000000 0.000004 3.350401 -1.970606 -3.734036 -0.727283 -0.000032 -0.000012 2.842754 0.028658 -3.734338 -0.727214 0.000008 -0.000004 2.639718 0.000001 -0.000001 0.000000 -0.000001 -0.000009 0.000004 0.000001 -0.000000 -0.000001 0.000005 0.000012 -0.000010 -0.000002 -0.000001 0.000000 2.625387 -0.000010 11.175229 -5.851106 84.574510 -0.387635 0.000008 0.000025 10.813629 38.232243 68.167979 31.194888 -0.000038 -0.000015 28.724865 -15.315943 -0.415592 109.125557 0.644371 0.328886 25.716192 -64.864941 3.040547 7.211712 2.867233 -2.944305 3.959579 -32.415948 13.591551 57.445682 -0.000011 0.000031 3.350412 4.708411 -4.020498 -9.020816 -0.000030 -0.000065 3.756518 3.201698 -2.871509 -6.226792 0.000005 -0.000009 3.099989 0.000001 -0.000001 0.000001 0.086697 -2.345325 10.030861 -10.794267 -12.641029 28.655253 -0.000015 -0.000006 4.061097 0.618981 0.027988 0.000633 0.000016 0.000006 3.248884 0.165625 -0.015545 0.000641 -0.000006 0.000013 2.639730 -0.000002 -0.000000 0.000001 -0.104177 -0.006849 9.502972 -5.141366 -8.711652 14.515583 0.000000 -0.000004 4.568722 0.569433 0.039613 0.039525 0.000004 -0.000026 3.655015 0.049250 -0.022009 0.033986 -0.000013 0.000015 2.741249 -0.000003 0.000001 0.000001 -0.086794 2.267376 8.921712 5.385647 4.907163 0.302739 -0.000032 -0.000008 4.061096 -1.004394 3.489373 0.212933 -0.000044 0.000023 3.654983 -0.056641 3.487513 0.209827 0.000008 -0.000001 2.741247 0.000000 0.000001 0.000001 0.173447 4.467201 7.977066 17.344342 23.641489 -11.831356 -0.000027 -0.000002 3.350403 -1.647042 14.234270 2.826360 -0.000030 0.000001 2.842754 0.352962 14.234274 2.826381 -0.000000 0.000005 2.639711 0.000000 -0.000001 0.000004 -0.000022 -0.000009 -0.000025 0.000002 -0.000000 0.000001 0.000005 -0.000009 -0.000014 0.000001 -0.000001 -0.000001 -11.289976 -0.000027 -0.000029 -10.433842 1.436066 15.157414 -0.000014 0.000024 -38.200321 -0.553393 0.059861 6.018837 0.000002 -0.000030 -39.900852 -7.147608 2.662527 17.488681 -0.000014 -15.261673 0.000003 0.661184 0.928343 -18.757708 -0.000001 -7.370731 0.000001 0.000001 -0.000000 -0.000001 0.000011 -0.000002 -0.000000 0.000000 0.000000 0.000001 0.000012 0.000003 -0.000002 -0.000001 -0.000000 0.000000 11.315669 -0.000023 -0.000008 -4.847023 1.412847 10.108105 -0.000001 0.000019 -38.200333 0.411906 -0.087416 11.590028 0.000004 -0.000107 -39.900852 -2.327878 -3.714730 16.662178 0.000003 -15.261711 -0.000005 -0.410161 -0.172474 -20.875471 0.000013 -7.539914 -0.000001 -0.000001 0.000000 -0.000001 -0.000001 0.000059 -0.000001 0.000000 -0.000000 0.000000 -0.000004 0.000001 0.000002 -0.000000 -0.000000 0.000000 
-0.199768 1.955811 88.699799 -0.710480 -0.156687 -12.567743 -0.000011 2.079981 8.814256 0.298634 -0.420115 7.536802 0.000008 0.000015 8.844139 0.169327 0.284716 2.214241 -0.000015 0.000022 11.682270 0.244938 0.093321 7.424743 0.000000 0.000027 11.746705 0.563095 0.045009 5.097196 -0.000010 0.000019 17.658279 -4.528178 -3.652805 4.432502 0.000002 -0.000010 5.101544 -3.579936 0.294065 -3.422266 0.000005 0.000007 5.101526 -0.856382 -0.878509 -17.525401 0.000009 -0.000004 11.655094 0.000001 0.000000 -0.000000 -2.625412 -0.000027 11.175242 193.226065 -89.881697 -182.368851 -0.000002 0.000010 10.434753 -14.271868 -56.957528 13.174863 0.000011 -0.000015 29.628437 14.090942 1.411172 99.695313 -0.000017 0.000072 22.857628 5.223193 7.909410 20.671967 -2.867340 -2.944305 3.959549 31.969937 -15.218329 54.724961 -0.000019 0.000019 3.350410 -8.189134 6.261726 -15.233320 -0.000019 0.000025 3.756500 -5.506899 4.583296 -10.473295 0.000001 -0.000075 3.147352 -0.000000 0.000000 -0.000001 -0.086761 -2.345268 10.030903 -7.607932 5.724955 15.154906 0.000027 0.000006 4.061093 0.542488 -0.000014 -0.005147 -0.000002 -0.000012 3.248872 0.140407 -0.000008 -0.008855 -0.000033 -0.000009 2.639712 0.000000 -0.000001 0.000001 0.104083 -0.006754 9.502947 -3.029108 2.996296 8.397646 0.000034 -0.000037 4.568745 0.526632 -0.088864 -0.000277 0.000015 -0.000067 3.655020 0.169785 0.049361 -0.001501 -0.000025 0.000005 2.741263 -0.000001 -0.000001 -0.000003 0.086728 2.267462 8.921724 4.290272 -1.055398 -1.677508 -0.000000 0.000014 4.061103 -1.060186 -0.839827 -0.052609 0.000001 0.000016 3.654991 -0.049474 -0.839837 -0.052903 0.000035 0.000012 2.741229 -0.000001 -0.000000 0.000001 -0.173491 4.467209 7.976997 11.702284 -2.133308 -14.419890 0.000023 -0.000002 3.350389 -1.969274 -3.693657 -0.719423 0.000003 0.000018 2.842772 0.029860 -3.693476 -0.719288 0.000003 -0.000000 2.639709 -0.000000 -0.000001 -0.000000 0.000018 0.000028 0.000003 0.000006 0.000001 -0.000001 -0.000003 -0.000012 0.000001 0.000002 -0.000001 -0.000000 2.625397 0.000007 11.175232 -5.826390 84.628093 -0.387903 0.000000 0.000016 10.813629 37.394760 68.254634 30.310351 0.000000 -0.000015 28.724819 -15.459027 -0.435595 108.985866 0.644396 0.328875 25.716208 -62.719749 3.048661 6.796969 2.867310 -2.944305 3.959503 -32.365036 13.750574 57.171883 -0.000029 0.000025 3.350395 5.044786 -4.261317 -9.634971 -0.000026 -0.000076 3.756538 3.426243 -3.050297 -6.647902 0.000002 -0.000006 3.100029 0.000001 -0.000002 0.000004 0.086693 -2.345299 10.030899 -10.512657 -11.277456 27.904987 0.000012 -0.000005 4.061094 0.617643 -0.000001 0.000328 0.000005 0.000013 3.248869 0.163877 0.000008 0.000678 0.000003 -0.000015 2.639730 0.000002 0.000001 -0.000000 -0.104162 -0.006840 9.502945 -4.958837 -7.752037 14.239024 -0.000007 -0.000018 4.568733 0.569240 0.000004 0.037812 -0.000009 -0.000020 3.654979 0.049159 -0.000002 0.032878 -0.000000 -0.000015 2.741248 0.000001 -0.000001 -0.000001 -0.086786 2.267401 8.921716 5.389209 4.934277 0.291234 -0.000005 -0.000006 4.061111 -1.006081 3.506017 0.212368 -0.000022 0.000028 3.654987 -0.055429 3.506408 0.210532 -0.000011 0.000008 2.741275 -0.000002 0.000001 0.000000 0.173485 4.467171 7.977028 17.082587 22.673885 -11.755311 0.000006 0.000007 3.350431 -1.679049 13.588778 2.693062 0.000004 0.000003 2.842756 0.320921 13.588787 2.693053 -0.000003 0.000001 2.639713 0.000000 0.000001 -0.000001 0.000015 0.000013 -0.000019 -0.000003 -0.000001 0.000000 0.000011 0.000000 0.000008 0.000000 0.000000 -0.000001 -11.289961 -0.000021 -0.000023 -10.544476 1.487649 15.224929 -0.000011 -0.000005 -38.200325 -0.553556 0.059912 6.005055 -0.000003 -0.000087 -39.900841 -7.274215 2.640982 17.443169 -0.000015 -15.261685 0.000004 0.662428 0.930333 -18.741853 -0.000013 -7.370739 0.000001 0.000002 0.000000 0.000000 0.000005 -0.000013 0.000001 0.000002 -0.000000 -0.000001 -0.000000 -0.000007 -0.000005 0.000001 -0.000000 -0.000001 11.315691 -0.000031 -0.000005 -4.953197 1.456511 10.108563 0.000018 -0.000020 -38.200340 0.412973 -0.087209 11.582538 -0.000016 -0.000043 -39.900871 -2.461449 -3.731366 16.692304 -0.000005 -15.261742 0.000004 -0.413488 -0.164576 -20.874511 -0.000007 -7.539977 -0.000001 -0.000000 -0.000000 0.000000 -0.000000 0.000063 0.000000 -0.000000 -0.000000 0.000000 -0.000001 -0.000000 0.000003 0.000000 -0.000000 -0.000000 
